<mxfile host="65bd71144e">
    <diagram id="E-zOPM6hSDA4G-ZeTOl8" name="Page-1">
        <mxGraphModel dx="1849" dy="1056" grid="1" gridSize="10" guides="1" tooltips="1" connect="1" arrows="1" fold="1" page="1" pageScale="1" pageWidth="1169" pageHeight="827" math="0" shadow="0">
            <root>
                <mxCell id="0"/>
                <mxCell id="1" parent="0"/>
                <mxCell id="2" value="Website Học Trực Tuyến Vui Học ML" style="rounded=0;whiteSpace=wrap;html=1;strokeWidth=2;fontFamily=Times New Roman;fontSize=16;fontStyle=1" parent="1" vertex="1">
                    <mxGeometry x="498" y="30" width="172" height="60" as="geometry"/>
                </mxCell>
                <mxCell id="3" value="Quản lý&lt;br&gt;&amp;nbsp;hệ thống" style="rounded=0;whiteSpace=wrap;html=1;strokeWidth=2;fontFamily=Times New Roman;fontSize=16;fontStyle=1" parent="1" vertex="1">
                    <mxGeometry x="208" y="130" width="120" height="60" as="geometry"/>
                </mxCell>
                <mxCell id="4" value="Quản lý &lt;br&gt;người dùng" style="rounded=0;whiteSpace=wrap;html=1;strokeWidth=2;fontFamily=Times New Roman;fontSize=16;fontStyle=1" parent="1" vertex="1">
                    <mxGeometry x="423" y="130" width="120" height="60" as="geometry"/>
                </mxCell>
                <mxCell id="5" value="Quản lý&lt;br&gt;&amp;nbsp;khóa học" style="rounded=0;whiteSpace=wrap;html=1;strokeWidth=2;fontFamily=Times New Roman;fontSize=16;fontStyle=1" parent="1" vertex="1">
                    <mxGeometry x="638" y="130" width="120" height="60" as="geometry"/>
                </mxCell>
                <mxCell id="6" value="Quản lý &lt;br&gt;đào tạo" style="rounded=0;whiteSpace=wrap;html=1;strokeWidth=2;fontFamily=Times New Roman;fontSize=16;fontStyle=1" parent="1" vertex="1">
                    <mxGeometry x="853" y="130" width="120" height="60" as="geometry"/>
                </mxCell>
                <mxCell id="17" value="Cập nhật nhóm &lt;br style=&quot;font-size: 16px;&quot;&gt;khóa học" style="rounded=0;whiteSpace=wrap;html=1;strokeWidth=2;fontFamily=Times New Roman;fontSize=16;fontStyle=1" parent="1" vertex="1">
                    <mxGeometry x="208" y="210" width="120" height="60" as="geometry"/>
                </mxCell>
                <mxCell id="18" value="Cập nhật nhãn &lt;br style=&quot;font-size: 16px;&quot;&gt;khóa học" style="rounded=0;whiteSpace=wrap;html=1;strokeWidth=2;fontFamily=Times New Roman;fontSize=16;fontStyle=1" parent="1" vertex="1">
                    <mxGeometry x="208" y="290" width="120" height="60" as="geometry"/>
                </mxCell>
                <mxCell id="19" value="Cập nhật tác giả" style="rounded=0;whiteSpace=wrap;html=1;strokeWidth=2;fontFamily=Times New Roman;fontSize=16;fontStyle=1" parent="1" vertex="1">
                    <mxGeometry x="208" y="450" width="120" height="60" as="geometry"/>
                </mxCell>
                <mxCell id="21" value="Đăng nhập" style="rounded=0;whiteSpace=wrap;html=1;strokeWidth=2;fontFamily=Times New Roman;fontSize=16;fontStyle=1" parent="1" vertex="1">
                    <mxGeometry x="423" y="210" width="120" height="60" as="geometry"/>
                </mxCell>
                <mxCell id="25" value="Đăng ký &lt;br style=&quot;font-size: 16px;&quot;&gt;quyền tác giả" style="rounded=0;whiteSpace=wrap;html=1;strokeWidth=2;fontFamily=Times New Roman;fontSize=16;fontStyle=1" parent="1" vertex="1">
                    <mxGeometry x="423" y="450" width="120" height="60" as="geometry"/>
                </mxCell>
                <mxCell id="28" value="Cập nhật &lt;br style=&quot;font-size: 16px;&quot;&gt;bài học khóa học" style="rounded=0;whiteSpace=wrap;html=1;strokeWidth=2;fontFamily=Times New Roman;fontSize=16;fontStyle=1" parent="1" vertex="1">
                    <mxGeometry x="638" y="290" width="120" height="60" as="geometry"/>
                </mxCell>
                <mxCell id="29" value="Cập nhật &lt;br style=&quot;font-size: 16px;&quot;&gt;khóa học" style="rounded=0;whiteSpace=wrap;html=1;strokeWidth=2;fontFamily=Times New Roman;fontSize=16;fontStyle=1" parent="1" vertex="1">
                    <mxGeometry x="638" y="210" width="120" height="60" as="geometry"/>
                </mxCell>
                <mxCell id="31" value="Cập nhật&amp;nbsp;&lt;br style=&quot;font-size: 16px;&quot;&gt;chi tiết bài học" style="rounded=0;whiteSpace=wrap;html=1;strokeWidth=2;fontFamily=Times New Roman;fontSize=16;fontStyle=1" parent="1" vertex="1">
                    <mxGeometry x="635" y="370" width="120" height="60" as="geometry"/>
                </mxCell>
                <mxCell id="32" value="Tìm kiếm &lt;br style=&quot;font-size: 16px;&quot;&gt;tài liệu tham khảo" style="rounded=0;whiteSpace=wrap;html=1;strokeWidth=2;fontFamily=Times New Roman;fontSize=16;fontStyle=1" parent="1" vertex="1">
                    <mxGeometry x="854" y="290" width="120" height="60" as="geometry"/>
                </mxCell>
                <mxCell id="33" value="Tìm kiếm &lt;br style=&quot;font-size: 16px;&quot;&gt;khóa học" style="rounded=0;whiteSpace=wrap;html=1;strokeWidth=2;fontFamily=Times New Roman;fontSize=16;fontStyle=1" parent="1" vertex="1">
                    <mxGeometry x="853" y="210" width="120" height="60" as="geometry"/>
                </mxCell>
                <mxCell id="34" value="Cập nhật tiến độ học bài học" style="rounded=0;whiteSpace=wrap;html=1;strokeWidth=2;fontFamily=Times New Roman;fontSize=16;fontStyle=1" parent="1" vertex="1">
                    <mxGeometry x="854" y="370" width="120" height="60" as="geometry"/>
                </mxCell>
                <mxCell id="35" value="Cập nhật &lt;br style=&quot;font-size: 16px;&quot;&gt;bài kiểm tra &lt;br&gt;của bài học" style="rounded=0;whiteSpace=wrap;html=1;strokeWidth=2;fontFamily=Times New Roman;fontSize=16;fontStyle=1" parent="1" vertex="1">
                    <mxGeometry x="635" y="450" width="120" height="60" as="geometry"/>
                </mxCell>
                <mxCell id="36" value="Cập nhật đánh &lt;br&gt;giá khóa học" style="rounded=0;whiteSpace=wrap;html=1;strokeWidth=2;fontFamily=Times New Roman;fontSize=16;fontStyle=1" parent="1" vertex="1">
                    <mxGeometry x="635" y="530" width="120" height="60" as="geometry"/>
                </mxCell>
                <mxCell id="37" value="Xác nhận hoàn thành khóa học" style="rounded=0;whiteSpace=wrap;html=1;strokeWidth=2;fontFamily=Times New Roman;fontSize=16;fontStyle=1" parent="1" vertex="1">
                    <mxGeometry x="853" y="530" width="120" height="60" as="geometry"/>
                </mxCell>
                <mxCell id="38" value="Cập nhật tiến độ học khóa học" style="rounded=0;whiteSpace=wrap;html=1;strokeWidth=2;fontFamily=Times New Roman;fontSize=16;fontStyle=1" parent="1" vertex="1">
                    <mxGeometry x="855" y="450" width="120" height="60" as="geometry"/>
                </mxCell>
                <mxCell id="49" value="" style="endArrow=none;html=1;strokeWidth=2;fontFamily=Times New Roman;fontSize=16;fontStyle=1" parent="1" edge="1">
                    <mxGeometry width="50" height="50" relative="1" as="geometry">
                        <mxPoint x="264" y="110" as="sourcePoint"/>
                        <mxPoint x="914" y="110" as="targetPoint"/>
                    </mxGeometry>
                </mxCell>
                <mxCell id="50" value="" style="endArrow=none;html=1;exitX=0.468;exitY=-0.003;exitDx=0;exitDy=0;exitPerimeter=0;strokeWidth=2;fontFamily=Times New Roman;fontSize=16;fontStyle=1" parent="1" source="3" edge="1">
                    <mxGeometry width="50" height="50" relative="1" as="geometry">
                        <mxPoint x="384" y="190" as="sourcePoint"/>
                        <mxPoint x="264" y="110" as="targetPoint"/>
                    </mxGeometry>
                </mxCell>
                <mxCell id="51" value="" style="endArrow=none;html=1;exitX=0.468;exitY=-0.003;exitDx=0;exitDy=0;exitPerimeter=0;strokeWidth=2;fontFamily=Times New Roman;fontSize=16;fontStyle=1" parent="1" edge="1">
                    <mxGeometry width="50" height="50" relative="1" as="geometry">
                        <mxPoint x="483.01" y="130" as="sourcePoint"/>
                        <mxPoint x="482.85" y="110.18" as="targetPoint"/>
                    </mxGeometry>
                </mxCell>
                <mxCell id="52" value="" style="endArrow=none;html=1;exitX=0.468;exitY=-0.003;exitDx=0;exitDy=0;exitPerimeter=0;strokeWidth=2;fontFamily=Times New Roman;fontSize=16;fontStyle=1" parent="1" edge="1">
                    <mxGeometry width="50" height="50" relative="1" as="geometry">
                        <mxPoint x="699.01" y="130" as="sourcePoint"/>
                        <mxPoint x="698.85" y="110.18" as="targetPoint"/>
                    </mxGeometry>
                </mxCell>
                <mxCell id="53" value="" style="endArrow=none;html=1;exitX=0.468;exitY=-0.003;exitDx=0;exitDy=0;exitPerimeter=0;strokeWidth=2;fontFamily=Times New Roman;fontSize=16;fontStyle=1" parent="1" edge="1">
                    <mxGeometry width="50" height="50" relative="1" as="geometry">
                        <mxPoint x="585.16" y="109.82" as="sourcePoint"/>
                        <mxPoint x="585" y="90" as="targetPoint"/>
                    </mxGeometry>
                </mxCell>
                <mxCell id="54" value="" style="endArrow=none;html=1;exitX=0.468;exitY=-0.003;exitDx=0;exitDy=0;exitPerimeter=0;strokeWidth=2;fontFamily=Times New Roman;fontSize=16;fontStyle=1" parent="1" edge="1">
                    <mxGeometry width="50" height="50" relative="1" as="geometry">
                        <mxPoint x="914.01" y="130" as="sourcePoint"/>
                        <mxPoint x="913.85" y="110.18" as="targetPoint"/>
                    </mxGeometry>
                </mxCell>
                <mxCell id="56" value="" style="endArrow=none;html=1;entryX=0;entryY=0.5;entryDx=0;entryDy=0;strokeWidth=2;fontFamily=Times New Roman;fontSize=16;fontStyle=1" parent="1" target="3" edge="1">
                    <mxGeometry width="50" height="50" relative="1" as="geometry">
                        <mxPoint x="194" y="160" as="sourcePoint"/>
                        <mxPoint x="314" y="120" as="targetPoint"/>
                    </mxGeometry>
                </mxCell>
                <mxCell id="57" value="" style="endArrow=none;html=1;strokeWidth=2;fontFamily=Times New Roman;fontSize=16;fontStyle=1" parent="1" edge="1">
                    <mxGeometry width="50" height="50" relative="1" as="geometry">
                        <mxPoint x="194" y="480" as="sourcePoint"/>
                        <mxPoint x="194" y="160" as="targetPoint"/>
                    </mxGeometry>
                </mxCell>
                <mxCell id="59" value="" style="endArrow=none;html=1;exitX=0;exitY=0.5;exitDx=0;exitDy=0;strokeWidth=2;fontFamily=Times New Roman;fontSize=16;fontStyle=1" parent="1" edge="1">
                    <mxGeometry width="50" height="50" relative="1" as="geometry">
                        <mxPoint x="208" y="399.90999999999997" as="sourcePoint"/>
                        <mxPoint x="193.99999999999997" y="399.90999999999997" as="targetPoint"/>
                    </mxGeometry>
                </mxCell>
                <mxCell id="60" value="" style="endArrow=none;html=1;exitX=0;exitY=0.5;exitDx=0;exitDy=0;strokeWidth=2;fontFamily=Times New Roman;fontSize=16;fontStyle=1" parent="1" edge="1">
                    <mxGeometry width="50" height="50" relative="1" as="geometry">
                        <mxPoint x="208" y="319.9099999999999" as="sourcePoint"/>
                        <mxPoint x="193.99999999999997" y="319.9099999999999" as="targetPoint"/>
                    </mxGeometry>
                </mxCell>
                <mxCell id="61" value="" style="endArrow=none;html=1;exitX=0;exitY=0.5;exitDx=0;exitDy=0;strokeWidth=2;fontFamily=Times New Roman;fontSize=16;fontStyle=1" parent="1" edge="1">
                    <mxGeometry width="50" height="50" relative="1" as="geometry">
                        <mxPoint x="208" y="239.9099999999999" as="sourcePoint"/>
                        <mxPoint x="193.99999999999997" y="239.9099999999999" as="targetPoint"/>
                    </mxGeometry>
                </mxCell>
                <mxCell id="62" value="" style="endArrow=none;html=1;exitX=0;exitY=0.5;exitDx=0;exitDy=0;strokeWidth=2;fontFamily=Times New Roman;fontSize=16;fontStyle=1" parent="1" edge="1">
                    <mxGeometry width="50" height="50" relative="1" as="geometry">
                        <mxPoint x="423" y="159.9099999999999" as="sourcePoint"/>
                        <mxPoint x="404" y="160" as="targetPoint"/>
                    </mxGeometry>
                </mxCell>
                <mxCell id="63" value="" style="endArrow=none;html=1;strokeWidth=2;fontFamily=Times New Roman;fontSize=16;fontStyle=1" parent="1" edge="1">
                    <mxGeometry width="50" height="50" relative="1" as="geometry">
                        <mxPoint x="404" y="480" as="sourcePoint"/>
                        <mxPoint x="404" y="160" as="targetPoint"/>
                    </mxGeometry>
                </mxCell>
                <mxCell id="66" value="" style="endArrow=none;html=1;entryX=0;entryY=0.5;entryDx=0;entryDy=0;strokeWidth=2;fontFamily=Times New Roman;fontSize=16;fontStyle=1" parent="1" edge="1">
                    <mxGeometry width="50" height="50" relative="1" as="geometry">
                        <mxPoint x="404.00000000000006" y="479.90999999999974" as="sourcePoint"/>
                        <mxPoint x="423" y="479.90999999999974" as="targetPoint"/>
                    </mxGeometry>
                </mxCell>
                <mxCell id="67" value="" style="endArrow=none;html=1;entryX=0;entryY=0.5;entryDx=0;entryDy=0;strokeWidth=2;fontFamily=Times New Roman;fontSize=16;fontStyle=1" parent="1" edge="1">
                    <mxGeometry width="50" height="50" relative="1" as="geometry">
                        <mxPoint x="404.00000000000006" y="239.90999999999974" as="sourcePoint"/>
                        <mxPoint x="423" y="239.90999999999974" as="targetPoint"/>
                    </mxGeometry>
                </mxCell>
                <mxCell id="73" value="" style="endArrow=none;html=1;entryX=0;entryY=0.5;entryDx=0;entryDy=0;strokeWidth=2;fontFamily=Times New Roman;fontSize=16;fontStyle=1" parent="1" edge="1">
                    <mxGeometry width="50" height="50" relative="1" as="geometry">
                        <mxPoint x="614" y="399.9500000000001" as="sourcePoint"/>
                        <mxPoint x="635" y="399.9499999999999" as="targetPoint"/>
                    </mxGeometry>
                </mxCell>
                <mxCell id="75" value="" style="endArrow=none;html=1;strokeWidth=2;fontFamily=Times New Roman;fontSize=16;fontStyle=1" parent="1" edge="1">
                    <mxGeometry width="50" height="50" relative="1" as="geometry">
                        <mxPoint x="614" y="560" as="sourcePoint"/>
                        <mxPoint x="613.9999999999998" y="160" as="targetPoint"/>
                    </mxGeometry>
                </mxCell>
                <mxCell id="76" value="" style="endArrow=none;html=1;entryX=0;entryY=0.5;entryDx=0;entryDy=0;strokeWidth=2;fontFamily=Times New Roman;fontSize=16;fontStyle=1" parent="1" target="5" edge="1">
                    <mxGeometry width="50" height="50" relative="1" as="geometry">
                        <mxPoint x="614" y="160" as="sourcePoint"/>
                        <mxPoint x="734" y="230" as="targetPoint"/>
                    </mxGeometry>
                </mxCell>
                <mxCell id="77" value="" style="endArrow=none;html=1;entryX=0;entryY=0.5;entryDx=0;entryDy=0;strokeWidth=2;fontFamily=Times New Roman;fontSize=16;fontStyle=1" parent="1" edge="1">
                    <mxGeometry width="50" height="50" relative="1" as="geometry">
                        <mxPoint x="614" y="239.70999999999998" as="sourcePoint"/>
                        <mxPoint x="638" y="239.70999999999998" as="targetPoint"/>
                    </mxGeometry>
                </mxCell>
                <mxCell id="78" value="" style="endArrow=none;html=1;entryX=0;entryY=0.5;entryDx=0;entryDy=0;strokeWidth=2;fontFamily=Times New Roman;fontSize=16;fontStyle=1" parent="1" edge="1">
                    <mxGeometry width="50" height="50" relative="1" as="geometry">
                        <mxPoint x="614" y="319.71" as="sourcePoint"/>
                        <mxPoint x="638" y="319.71" as="targetPoint"/>
                    </mxGeometry>
                </mxCell>
                <mxCell id="79" value="" style="endArrow=none;html=1;entryX=0;entryY=0.5;entryDx=0;entryDy=0;strokeWidth=2;fontFamily=Times New Roman;fontSize=16;fontStyle=1" parent="1" edge="1">
                    <mxGeometry width="50" height="50" relative="1" as="geometry">
                        <mxPoint x="612" y="479.71000000000004" as="sourcePoint"/>
                        <mxPoint x="636" y="479.71000000000004" as="targetPoint"/>
                    </mxGeometry>
                </mxCell>
                <mxCell id="80" value="" style="endArrow=none;html=1;entryX=0;entryY=0.5;entryDx=0;entryDy=0;strokeWidth=2;fontFamily=Times New Roman;fontSize=16;fontStyle=1" parent="1" edge="1">
                    <mxGeometry width="50" height="50" relative="1" as="geometry">
                        <mxPoint x="614" y="559.6600000000001" as="sourcePoint"/>
                        <mxPoint x="638" y="559.6600000000001" as="targetPoint"/>
                    </mxGeometry>
                </mxCell>
                <mxCell id="81" value="" style="endArrow=none;html=1;strokeWidth=2;fontFamily=Times New Roman;fontSize=16;fontStyle=1" parent="1" edge="1">
                    <mxGeometry width="50" height="50" relative="1" as="geometry">
                        <mxPoint x="834" y="650" as="sourcePoint"/>
                        <mxPoint x="833.9999999999998" y="159.9999999999999" as="targetPoint"/>
                    </mxGeometry>
                </mxCell>
                <mxCell id="82" value="" style="endArrow=none;html=1;entryX=0;entryY=0.5;entryDx=0;entryDy=0;strokeWidth=2;fontFamily=Times New Roman;fontSize=16;fontStyle=1" parent="1" target="6" edge="1">
                    <mxGeometry width="50" height="50" relative="1" as="geometry">
                        <mxPoint x="834" y="160" as="sourcePoint"/>
                        <mxPoint x="884" y="100" as="targetPoint"/>
                    </mxGeometry>
                </mxCell>
                <mxCell id="83" value="" style="endArrow=none;html=1;entryX=0;entryY=0.5;entryDx=0;entryDy=0;strokeWidth=2;fontFamily=Times New Roman;fontSize=16;fontStyle=1" parent="1" edge="1">
                    <mxGeometry width="50" height="50" relative="1" as="geometry">
                        <mxPoint x="834" y="239.87" as="sourcePoint"/>
                        <mxPoint x="853" y="239.87" as="targetPoint"/>
                    </mxGeometry>
                </mxCell>
                <mxCell id="84" value="" style="endArrow=none;html=1;entryX=0;entryY=0.5;entryDx=0;entryDy=0;strokeWidth=2;fontFamily=Times New Roman;fontSize=16;fontStyle=1" parent="1" edge="1">
                    <mxGeometry width="50" height="50" relative="1" as="geometry">
                        <mxPoint x="835" y="319.87" as="sourcePoint"/>
                        <mxPoint x="854" y="319.87" as="targetPoint"/>
                    </mxGeometry>
                </mxCell>
                <mxCell id="85" value="" style="endArrow=none;html=1;entryX=0;entryY=0.5;entryDx=0;entryDy=0;strokeWidth=2;fontFamily=Times New Roman;fontSize=16;fontStyle=1" parent="1" edge="1">
                    <mxGeometry width="50" height="50" relative="1" as="geometry">
                        <mxPoint x="834" y="559.87" as="sourcePoint"/>
                        <mxPoint x="853" y="559.87" as="targetPoint"/>
                    </mxGeometry>
                </mxCell>
                <mxCell id="87" value="" style="endArrow=none;html=1;entryX=0;entryY=0.5;entryDx=0;entryDy=0;strokeWidth=2;fontFamily=Times New Roman;fontSize=16;fontStyle=1" parent="1" target="34" edge="1">
                    <mxGeometry width="50" height="50" relative="1" as="geometry">
                        <mxPoint x="833" y="400" as="sourcePoint"/>
                        <mxPoint x="883" y="400" as="targetPoint"/>
                    </mxGeometry>
                </mxCell>
                <mxCell id="88" value="" style="endArrow=none;html=1;entryX=0;entryY=0.5;entryDx=0;entryDy=0;strokeWidth=2;fontFamily=Times New Roman;fontSize=16;fontStyle=1" parent="1" edge="1">
                    <mxGeometry width="50" height="50" relative="1" as="geometry">
                        <mxPoint x="833" y="479.84000000000003" as="sourcePoint"/>
                        <mxPoint x="854" y="479.84000000000003" as="targetPoint"/>
                    </mxGeometry>
                </mxCell>
                <mxCell id="98" value="Đăng ký" style="rounded=0;whiteSpace=wrap;html=1;strokeWidth=2;fontFamily=Times New Roman;fontSize=16;fontStyle=1" vertex="1" parent="1">
                    <mxGeometry x="423" y="290" width="120" height="60" as="geometry"/>
                </mxCell>
                <mxCell id="99" value="" style="endArrow=none;html=1;entryX=0;entryY=0.5;entryDx=0;entryDy=0;strokeWidth=2;fontFamily=Times New Roman;fontSize=16;fontStyle=1" edge="1" parent="1">
                    <mxGeometry width="50" height="50" relative="1" as="geometry">
                        <mxPoint x="404" y="319.90999999999974" as="sourcePoint"/>
                        <mxPoint x="423" y="319.90999999999974" as="targetPoint"/>
                    </mxGeometry>
                </mxCell>
                <mxCell id="100" value="Cập nhật &lt;br style=&quot;font-size: 16px;&quot;&gt;tài khoản" style="rounded=0;whiteSpace=wrap;html=1;strokeWidth=2;fontFamily=Times New Roman;fontSize=16;fontStyle=1" vertex="1" parent="1">
                    <mxGeometry x="423" y="370" width="120" height="60" as="geometry"/>
                </mxCell>
                <mxCell id="101" value="" style="endArrow=none;html=1;entryX=0;entryY=0.5;entryDx=0;entryDy=0;strokeWidth=2;fontFamily=Times New Roman;fontSize=16;fontStyle=1" edge="1" parent="1">
                    <mxGeometry width="50" height="50" relative="1" as="geometry">
                        <mxPoint x="404" y="399.90999999999974" as="sourcePoint"/>
                        <mxPoint x="423" y="399.90999999999974" as="targetPoint"/>
                    </mxGeometry>
                </mxCell>
                <mxCell id="107" value="Gửi vấn đề &lt;br style=&quot;font-size: 16px;&quot;&gt;cho tác giả" style="rounded=0;whiteSpace=wrap;html=1;strokeWidth=2;fontFamily=Times New Roman;fontSize=16;fontStyle=1" vertex="1" parent="1">
                    <mxGeometry x="854" y="610" width="120" height="60" as="geometry"/>
                </mxCell>
                <mxCell id="115" value="" style="endArrow=none;html=1;entryX=0;entryY=0.5;entryDx=0;entryDy=0;strokeWidth=2;fontFamily=Times New Roman;fontSize=16;fontStyle=1" edge="1" parent="1">
                    <mxGeometry width="50" height="50" relative="1" as="geometry">
                        <mxPoint x="833" y="650.0000000000001" as="sourcePoint"/>
                        <mxPoint x="853.9999999999998" y="650.0000000000001" as="targetPoint"/>
                    </mxGeometry>
                </mxCell>
                <mxCell id="117" value="" style="endArrow=none;html=1;exitX=0;exitY=0.5;exitDx=0;exitDy=0;strokeWidth=2;fontFamily=Times New Roman;fontSize=16;fontStyle=1" edge="1" parent="1">
                    <mxGeometry width="50" height="50" relative="1" as="geometry">
                        <mxPoint x="208" y="479.9" as="sourcePoint"/>
                        <mxPoint x="194" y="479.9" as="targetPoint"/>
                    </mxGeometry>
                </mxCell>
                <mxCell id="118" value="Xác thực tác giả" style="rounded=0;whiteSpace=wrap;html=1;strokeWidth=2;fontFamily=Times New Roman;fontSize=16;fontStyle=1" vertex="1" parent="1">
                    <mxGeometry x="208" y="370" width="120" height="60" as="geometry"/>
                </mxCell>
            </root>
        </mxGraphModel>
    </diagram>
</mxfile>